<mxfile host="app.diagrams.net" agent="Mozilla/5.0 (Windows NT 10.0; Win64; x64) AppleWebKit/537.36 (KHTML, like Gecko) Chrome/131.0.0.0 Safari/537.36" version="26.0.6">
  <diagram name="Seite-1" id="4w39SoIUdMgqN-UbpZJ7">
    <mxGraphModel dx="2074" dy="1907" grid="1" gridSize="10" guides="1" tooltips="1" connect="1" arrows="1" fold="1" page="1" pageScale="1" pageWidth="827" pageHeight="1169" math="0" shadow="0">
      <root>
        <mxCell id="0" />
        <mxCell id="1" parent="0" />
        <mxCell id="kVkb22ZLyX0b7_8AuG8s-2" value="Scheduling Client" style="shape=umlLifeline;perimeter=lifelinePerimeter;container=1;collapsible=0;recursiveResize=0;rounded=0;shadow=0;strokeWidth=1;" vertex="1" parent="1">
          <mxGeometry x="30" y="-630" width="100" height="250" as="geometry" />
        </mxCell>
        <mxCell id="kVkb22ZLyX0b7_8AuG8s-3" value="" style="points=[];perimeter=orthogonalPerimeter;rounded=0;shadow=0;strokeWidth=1;" vertex="1" parent="kVkb22ZLyX0b7_8AuG8s-2">
          <mxGeometry x="45" y="70" width="10" height="150" as="geometry" />
        </mxCell>
        <mxCell id="kVkb22ZLyX0b7_8AuG8s-4" value="Trigger" style="verticalAlign=bottom;startArrow=oval;endArrow=block;startSize=8;shadow=0;strokeWidth=1;" edge="1" parent="kVkb22ZLyX0b7_8AuG8s-2" target="kVkb22ZLyX0b7_8AuG8s-3">
          <mxGeometry relative="1" as="geometry">
            <mxPoint x="-15" y="70" as="sourcePoint" />
          </mxGeometry>
        </mxCell>
        <mxCell id="kVkb22ZLyX0b7_8AuG8s-5" value="Scheduling Server" style="shape=umlLifeline;perimeter=lifelinePerimeter;container=1;collapsible=0;recursiveResize=0;rounded=0;shadow=0;strokeWidth=1;" vertex="1" parent="1">
          <mxGeometry x="350" y="-630" width="140" height="260" as="geometry" />
        </mxCell>
        <mxCell id="kVkb22ZLyX0b7_8AuG8s-6" value="" style="points=[];perimeter=orthogonalPerimeter;rounded=0;shadow=0;strokeWidth=1;" vertex="1" parent="kVkb22ZLyX0b7_8AuG8s-5">
          <mxGeometry x="65" y="80" width="10" height="160" as="geometry" />
        </mxCell>
        <mxCell id="kVkb22ZLyX0b7_8AuG8s-7" value="Bestätigung des Empfangs der Terminoption" style="verticalAlign=bottom;endArrow=open;dashed=1;endSize=8;exitX=0;exitY=0.95;shadow=0;strokeWidth=1;" edge="1" parent="kVkb22ZLyX0b7_8AuG8s-5">
          <mxGeometry relative="1" as="geometry">
            <mxPoint x="-265" y="109.99999999999989" as="targetPoint" />
            <mxPoint x="65" y="109.99999999999989" as="sourcePoint" />
          </mxGeometry>
        </mxCell>
        <mxCell id="kVkb22ZLyX0b7_8AuG8s-8" value="" style="points=[];perimeter=orthogonalPerimeter;rounded=0;shadow=0;strokeWidth=1;" vertex="1" parent="kVkb22ZLyX0b7_8AuG8s-5">
          <mxGeometry x="55" y="180" width="10" height="50" as="geometry" />
        </mxCell>
        <mxCell id="kVkb22ZLyX0b7_8AuG8s-9" value="Übermittelung einer Auswahl einer Terminoption" style="verticalAlign=bottom;endArrow=block;entryX=0;entryY=0;shadow=0;strokeWidth=1;" edge="1" parent="1" source="kVkb22ZLyX0b7_8AuG8s-3" target="kVkb22ZLyX0b7_8AuG8s-6">
          <mxGeometry relative="1" as="geometry">
            <mxPoint x="185" y="-550" as="sourcePoint" />
          </mxGeometry>
        </mxCell>
        <mxCell id="kVkb22ZLyX0b7_8AuG8s-10" value="GDA&#xa;System" style="shape=umlLifeline;perimeter=lifelinePerimeter;container=1;collapsible=0;recursiveResize=0;rounded=0;shadow=0;strokeWidth=1;" vertex="1" parent="1">
          <mxGeometry x="600" y="-630" width="220" height="260" as="geometry" />
        </mxCell>
        <mxCell id="kVkb22ZLyX0b7_8AuG8s-11" value="" style="points=[];perimeter=orthogonalPerimeter;rounded=0;shadow=0;strokeWidth=1;" vertex="1" parent="kVkb22ZLyX0b7_8AuG8s-10">
          <mxGeometry x="105" y="80" width="10" height="130" as="geometry" />
        </mxCell>
        <mxCell id="kVkb22ZLyX0b7_8AuG8s-12" value="Bestätigung/Ablehnung der angefragten Terminoption" style="verticalAlign=bottom;endArrow=open;dashed=1;endSize=8;exitX=0;exitY=0.95;shadow=0;strokeWidth=1;" edge="1" parent="kVkb22ZLyX0b7_8AuG8s-10">
          <mxGeometry relative="1" as="geometry">
            <mxPoint x="-170" y="170" as="targetPoint" />
            <mxPoint x="105" y="169.9999999999999" as="sourcePoint" />
          </mxGeometry>
        </mxCell>
        <mxCell id="kVkb22ZLyX0b7_8AuG8s-13" value="Benachrichtigung der Benutzer:in Anfrage Terminoption" style="verticalAlign=bottom;endArrow=block;shadow=0;strokeWidth=1;" edge="1" parent="kVkb22ZLyX0b7_8AuG8s-10">
          <mxGeometry relative="1" as="geometry">
            <mxPoint x="-170" y="137.00000000000023" as="sourcePoint" />
            <mxPoint x="100" y="137" as="targetPoint" />
          </mxGeometry>
        </mxCell>
        <mxCell id="kVkb22ZLyX0b7_8AuG8s-14" value="Bestätigung/Ablehnung der angefragten Terminoption" style="verticalAlign=bottom;endArrow=none;entryX=0;entryY=0;shadow=0;strokeWidth=1;startArrow=classic;startFill=1;endFill=0;" edge="1" parent="1">
          <mxGeometry relative="1" as="geometry">
            <mxPoint x="85" y="-425.3399999999997" as="sourcePoint" />
            <mxPoint x="415" y="-425.3399999999997" as="targetPoint" />
          </mxGeometry>
        </mxCell>
      </root>
    </mxGraphModel>
  </diagram>
</mxfile>
